<?xml version='1.0' encoding='UTF-8' standalone='no'?>
<svg xmlns="http://www.w3.org/2000/svg" y="0in" x="0in"  version="1.2" width="4.4999995in" id="svg353" viewBox="0 0 4499.9997 1899.9997" height="1.8999999in" gorn="0">
    <metadata  id="metadata359">
        <rdf:RDF xmlns:rdf="http://www.w3.org/1999/02/22-rdf-syntax-ns#">
            <cc:Work rdf:about="" xmlns:cc="http://creativecommons.org/ns#" xmlns:rdf="http://www.w3.org/1999/02/22-rdf-syntax-ns#">
                <dc:format xmlns:dc="http://purl.org/dc/elements/1.1/">image/svg+xml</dc:format>
                <dc:type rdf:resource="http://purl.org/dc/dcmitype/StillImage" xmlns:dc="http://purl.org/dc/elements/1.1/" xmlns:rdf="http://www.w3.org/1999/02/22-rdf-syntax-ns#"/>
                <dc:title xmlns:dc="http://purl.org/dc/elements/1.1/"/>
            </cc:Work>
        </rdf:RDF>
    </metadata>
    <defs  id="defs357"/>
    <desc  id="desc2">

	<referenceFile>80960SB_9e98a99ff9ed29acd5a43263042863c8_1_breadboard.svg</referenceFile>
    </desc>
    <g  id="breadboard" gorn="0.3">
        <rect y="0" x="2.8421709e-14"  width="4499.9995" fill-opacity="1" stroke-width="10.41666603" id="rect115" fill="#005500" height="1899.9998" gorn="0.3.0"/>
        <text y="1007.9929" x="2128.2041"  text-anchor="start" stroke="none" font-size="80" font-family="OCRA" id="label" fill="#e6e6e6" gorn="0.3.1">80960SB</text>
        <rect y="1776.5999" x="134.99998"  width="30" id="connector0pin" fill="#ffbf00" height="43.400002" gorn="0.3.2"/>
        <rect y="78.599899" x="134.99998"  width="30" id="connector83pin" fill="#ffbf00" height="43.400002" gorn="0.3.3"/>
        <rect y="1776.5999" x="4235"  width="30" id="connector41pin" fill="#ffbf00" height="43.400002" gorn="0.3.4"/>
        <rect y="78.599899" x="4235"  width="30" id="connector42pin" fill="#ffbf00" height="43.400002" gorn="0.3.5"/>
        <rect y="78.599899" x="234.99998"  width="30" id="connector82pin" fill="#ffbf00" height="43.400002" gorn="0.3.6"/>
        <rect y="78.599899" x="335"  width="30" id="connector81pin" fill="#ffbf00" height="43.400002" gorn="0.3.7"/>
        <rect y="78.599899" x="435"  width="30" id="connector80pin" fill="#ffbf00" height="43.400002" gorn="0.3.8"/>
        <rect y="78.599899" x="535"  width="30" id="connector79pin" fill="#ffbf00" height="43.400002" gorn="0.3.9"/>
        <rect y="78.599899" x="635"  width="30" id="connector78pin" fill="#ffbf00" height="43.400002" gorn="0.3.10"/>
        <rect y="78.599899" x="735"  width="30" id="connector77pin" fill="#ffbf00" height="43.400002" gorn="0.3.11"/>
        <rect y="78.599899" x="835"  width="30" id="connector76pin" fill="#ffbf00" height="43.400002" gorn="0.3.12"/>
        <rect y="78.599899" x="935"  width="30" id="connector75pin" fill="#ffbf00" height="43.400002" gorn="0.3.13"/>
        <rect y="78.599899" x="1035"  width="30" id="connector74pin" fill="#ffbf00" height="43.400002" gorn="0.3.14"/>
        <rect y="78.599899" x="1135"  width="30" id="connector73pin" fill="#ffbf00" height="43.400002" gorn="0.3.15"/>
        <rect y="78.599899" x="1235"  width="30" id="connector72pin" fill="#ffbf00" height="43.400002" gorn="0.3.16"/>
        <rect y="78.599899" x="1335"  width="30" id="connector71pin" fill="#ffbf00" height="43.400002" gorn="0.3.17"/>
        <rect y="78.599899" x="1435"  width="30" id="connector70pin" fill="#ffbf00" height="43.400002" gorn="0.3.18"/>
        <rect y="78.599899" x="1535"  width="30" id="connector69pin" fill="#ffbf00" height="43.400002" gorn="0.3.19"/>
        <rect y="78.599899" x="1635"  width="30" id="connector68pin" fill="#ffbf00" height="43.400002" gorn="0.3.20"/>
        <rect y="78.599899" x="1735"  width="30" id="connector67pin" fill="#ffbf00" height="43.400002" gorn="0.3.21"/>
        <rect y="78.599899" x="1835"  width="30" id="connector66pin" fill="#ffbf00" height="43.400002" gorn="0.3.22"/>
        <rect y="78.599899" x="1935"  width="30" id="connector65pin" fill="#ffbf00" height="43.400002" gorn="0.3.23"/>
        <rect y="78.599899" x="2035"  width="30" id="connector64pin" fill="#ffbf00" height="43.400002" gorn="0.3.24"/>
        <rect y="78.599899" x="2135"  width="30" id="connector63pin" fill="#ffbf00" height="43.400002" gorn="0.3.25"/>
        <rect y="78.599899" x="2235"  width="30" id="connector62pin" fill="#ffbf00" height="43.400002" gorn="0.3.26"/>
        <rect y="78.599899" x="2335"  width="30" id="connector61pin" fill="#ffbf00" height="43.400002" gorn="0.3.27"/>
        <rect y="78.599899" x="2435"  width="30" id="connector60pin" fill="#ffbf00" height="43.400002" gorn="0.3.28"/>
        <rect y="78.599899" x="2535"  width="30" id="connector59pin" fill="#ffbf00" height="43.400002" gorn="0.3.29"/>
        <rect y="78.599899" x="2635"  width="30" id="connector58pin" fill="#ffbf00" height="43.400002" gorn="0.3.30"/>
        <rect y="78.599899" x="2735"  width="30" id="connector57pin" fill="#ffbf00" height="43.400002" gorn="0.3.31"/>
        <rect y="78.599899" x="2835"  width="30" id="connector56pin" fill="#ffbf00" height="43.400002" gorn="0.3.32"/>
        <rect y="78.599899" x="2935"  width="30" id="connector55pin" fill="#ffbf00" height="43.400002" gorn="0.3.33"/>
        <rect y="78.599899" x="3035"  width="30" id="connector54pin" fill="#ffbf00" height="43.400002" gorn="0.3.34"/>
        <rect y="78.599899" x="3135"  width="30" id="connector53pin" fill="#ffbf00" height="43.400002" gorn="0.3.35"/>
        <rect y="78.599899" x="3135"  width="30" id="connector53terminal" fill="#ffbf00" height="30" gorn="0.3.36"/>
        <rect y="78.599899" x="3235"  width="30" id="connector52pin" fill="#ffbf00" height="43.400002" gorn="0.3.37"/>
        <rect y="78.599899" x="3335"  width="30" id="connector51pin" fill="#ffbf00" height="43.400002" gorn="0.3.38"/>
        <rect y="78.599899" x="3435"  width="30" id="connector50pin" fill="#ffbf00" height="43.400002" gorn="0.3.39"/>
        <rect y="78.599899" x="3535"  width="30" id="connector49pin" fill="#ffbf00" height="43.400002" gorn="0.3.40"/>
        <rect y="78.599899" x="3635"  width="30" id="connector48pin" fill="#ffbf00" height="43.400002" gorn="0.3.41"/>
        <rect y="78.599899" x="3735"  width="30" id="connector47pin" fill="#ffbf00" height="43.400002" gorn="0.3.42"/>
        <rect y="78.599899" x="3835"  width="30" id="connector46pin" fill="#ffbf00" height="43.400002" gorn="0.3.43"/>
        <rect y="78.599899" x="3935"  width="30" id="connector45pin" fill="#ffbf00" height="43.400002" gorn="0.3.44"/>
        <rect y="78.599899" x="4035"  width="30" id="connector44pin" fill="#ffbf00" height="43.400002" gorn="0.3.45"/>
        <rect y="78.599899" x="4135"  width="30" id="connector43pin" fill="#ffbf00" height="43.400002" gorn="0.3.46"/>
        <rect y="1776.5999" x="234.99998"  width="30" id="connector1pin" fill="#ffbf00" height="43.400002" gorn="0.3.47"/>
        <rect y="1776.5999" x="335"  width="30" id="connector2pin" fill="#ffbf00" height="43.400002" gorn="0.3.48"/>
        <rect y="1776.5999" x="435"  width="30" id="connector3pin" fill="#ffbf00" height="43.400002" gorn="0.3.49"/>
        <rect y="1776.5999" x="535"  width="30" id="connector4pin" fill="#ffbf00" height="43.400002" gorn="0.3.50"/>
        <rect y="1776.5999" x="635"  width="30" id="connector5pin" fill="#ffbf00" height="43.400002" gorn="0.3.51"/>
        <rect y="1776.5999" x="735"  width="30" id="connector6pin" fill="#ffbf00" height="43.400002" gorn="0.3.52"/>
        <rect y="1776.5999" x="835"  width="30" id="connector7pin" fill="#ffbf00" height="43.400002" gorn="0.3.53"/>
        <rect y="1776.5999" x="935"  width="30" id="connector8pin" fill="#ffbf00" height="43.400002" gorn="0.3.54"/>
        <rect y="1776.5999" x="1035"  width="30" id="connector9pin" fill="#ffbf00" height="43.400002" gorn="0.3.55"/>
        <rect y="1776.5999" x="1135"  width="30" id="connector10pin" fill="#ffbf00" height="43.400002" gorn="0.3.56"/>
        <rect y="1776.5999" x="1235"  width="30" id="connector11pin" fill="#ffbf00" height="43.400002" gorn="0.3.57"/>
        <rect y="1776.5999" x="1335"  width="30" id="connector12pin" fill="#ffbf00" height="43.400002" gorn="0.3.58"/>
        <rect y="1776.5999" x="1435"  width="30" id="connector13pin" fill="#ffbf00" height="43.400002" gorn="0.3.59"/>
        <rect y="1776.5999" x="1535"  width="30" id="connector14pin" fill="#ffbf00" height="43.400002" gorn="0.3.60"/>
        <rect y="1776.5999" x="1635"  width="30" id="connector15pin" fill="#ffbf00" height="43.400002" gorn="0.3.61"/>
        <rect y="1776.5999" x="1735"  width="30" id="connector16pin" fill="#ffbf00" height="43.400002" gorn="0.3.62"/>
        <rect y="1776.5999" x="1835"  width="30" id="connector17pin" fill="#ffbf00" height="43.400002" gorn="0.3.63"/>
        <rect y="1776.5999" x="1935"  width="30" id="connector18pin" fill="#ffbf00" height="43.400002" gorn="0.3.64"/>
        <rect y="1776.5999" x="2035"  width="30" id="connector19pin" fill="#ffbf00" height="43.400002" gorn="0.3.65"/>
        <rect y="1776.5999" x="2135"  width="30" id="connector20pin" fill="#ffbf00" height="43.400002" gorn="0.3.66"/>
        <rect y="1776.5999" x="2235"  width="30" id="connector21pin" fill="#ffbf00" height="43.400002" gorn="0.3.67"/>
        <rect y="1776.5999" x="2335"  width="30" id="connector22pin" fill="#ffbf00" height="43.400002" gorn="0.3.68"/>
        <rect y="1776.5999" x="2435"  width="30" id="connector23pin" fill="#ffbf00" height="43.400002" gorn="0.3.69"/>
        <rect y="1776.5999" x="2535"  width="30" id="connector24pin" fill="#ffbf00" height="43.400002" gorn="0.3.70"/>
        <rect y="1776.5999" x="2635"  width="30" id="connector25pin" fill="#ffbf00" height="43.400002" gorn="0.3.71"/>
        <rect y="1776.5999" x="2735"  width="30" id="connector26pin" fill="#ffbf00" height="43.400002" gorn="0.3.72"/>
        <rect y="1776.5999" x="2835"  width="30" id="connector27pin" fill="#ffbf00" height="43.400002" gorn="0.3.73"/>
        <rect y="1776.5999" x="2935"  width="30" id="connector28pin" fill="#ffbf00" height="43.400002" gorn="0.3.74"/>
        <rect y="1776.5999" x="3035"  width="30" id="connector29pin" fill="#ffbf00" height="43.400002" gorn="0.3.75"/>
        <rect y="1776.5999" x="3135"  width="30" id="connector30pin" fill="#ffbf00" height="43.400002" gorn="0.3.76"/>
        <rect y="1776.5999" x="3235"  width="30" id="connector31pin" fill="#ffbf00" height="43.400002" gorn="0.3.77"/>
        <rect y="1776.5999" x="3335"  width="30" id="connector32pin" fill="#ffbf00" height="43.400002" gorn="0.3.78"/>
        <rect y="1776.5999" x="3435"  width="30" id="connector33pin" fill="#ffbf00" height="43.400002" gorn="0.3.79"/>
        <rect y="1776.5999" x="3535"  width="30" id="connector34pin" fill="#ffbf00" height="43.400002" gorn="0.3.80"/>
        <rect y="1776.5999" x="3635"  width="30" id="connector35pin" fill="#ffbf00" height="43.400002" gorn="0.3.81"/>
        <rect y="1776.5999" x="3735"  width="30" id="connector36pin" fill="#ffbf00" height="43.400002" gorn="0.3.82"/>
        <rect y="1776.5999" x="3835"  width="30" id="connector37pin" fill="#ffbf00" height="43.400002" gorn="0.3.83"/>
        <rect y="1776.5999" x="3935"  width="30" id="connector38pin" fill="#ffbf00" height="43.400002" gorn="0.3.84"/>
        <rect y="1776.5999" x="4035"  width="30" id="connector39pin" fill="#ffbf00" height="43.400002" gorn="0.3.85"/>
        <rect y="1776.5999" x="4135"  width="30" id="connector40pin" fill="#ffbf00" height="43.400002" gorn="0.3.86"/>
        <line  stroke="#e6e6e6" y1="348.32202" stroke-width="20" id="line91" x1="1581.2397" x2="1581.2397" y2="1706.9849" gorn="0.3.87"/>
        <line  stroke="#e6e6e6" y1="1699.9999" stroke-width="20" id="line93" x1="1580.0001" x2="3000" y2="1699.9999" gorn="0.3.88"/>
        <line  stroke="#e6e6e6" y1="1711.0914" stroke-width="20" id="line95" x1="3001.8335" x2="3001.8335" y2="266.05182" gorn="0.3.89"/>
        <line  stroke="#e6e6e6" y1="278.08331" stroke-width="20" id="line97" x1="1652.6381" x2="2999.9949" y2="278.08331" gorn="0.3.90"/>
        <circle  cy="1671.3333" r="20" fill-opacity="1" stroke-width="10.41666698" cx="2297.7188" id="path107" fill="#000000" gorn="0.3.91"/>
        <line  stroke="#e6e6e6" y1="276.48624" stroke-width="20" id="line4099" x2="1580.8088" x1="1654.5929" y2="350.54968" gorn="0.3.92"/>
    </g>
</svg>
